inDegrees=no
num_controls=7
num_derivatives=13
num_iterations=183
num_multipliers=7
num_parameters=0
num_slacks=7
num_states=26
objective=5.689697
objective_accelerations=0.478495
objective_balance=0.040638
objective_effort=0.480705
objective_height=4.665609
objective_ligament=0.024249
solver_duration=1992.183368
status=Solve_Succeeded
success=true
DataType=double
version=3
OpenSimVersion=4.4-2022-07-23-0e9fedc
endheader
time	/jointset/ground_pelvis/pelvis_tilt/value	/jointset/ground_pelvis/pelvis_tx/value	/jointset/ground_pelvis/pelvis_ty/value	/jointset/hip_l/hip_flexion_l/value	/jointset/hip_l/hip_adduction_l/value	/jointset/hip_l/hip_rotation_l/value	/jointset/back/lumbar_extension/value	/jointset/patellofemoral_l/patellar_flexion_l/value	/jointset/knee_l/knee_flexion_l/value	/jointset/knee_l/knee_adduction_l/value	/jointset/knee_l/knee_rotation_l/value	/jointset/ankle_l/ankle_angle_l/value	/jointset/subtalar_l/subtalar_angle_l/value	/jointset/ground_pelvis/pelvis_tilt/speed	/jointset/ground_pelvis/pelvis_tx/speed	/jointset/ground_pelvis/pelvis_ty/speed	/jointset/hip_l/hip_flexion_l/speed	/jointset/hip_l/hip_adduction_l/speed	/jointset/hip_l/hip_rotation_l/speed	/jointset/back/lumbar_extension/speed	/jointset/patellofemoral_l/patellar_flexion_l/speed	/jointset/knee_l/knee_flexion_l/speed	/jointset/knee_l/knee_adduction_l/speed	/jointset/knee_l/knee_rotation_l/speed	/jointset/ankle_l/ankle_angle_l/speed	/jointset/subtalar_l/subtalar_angle_l/speed	/forceset/tau_hip_flexion_l	/forceset/tau_hip_adduction_l	/forceset/tau_hip_rotation_l	/forceset/tau_knee_flexion_l	/forceset/tau_ankle_angle_l	/forceset/tau_subtalar_angle_l	/forceset/tau_lumbar_extension	lambda_cid13_p0	lambda_cid13_p1	lambda_cid13_p2	lambda_cid13_p3	lambda_cid13_p4	lambda_cid13_p5	lambda_cid14_p0	/jointset/ground_pelvis/pelvis_tilt/accel	/jointset/ground_pelvis/pelvis_tx/accel	/jointset/ground_pelvis/pelvis_ty/accel	/jointset/hip_l/hip_flexion_l/accel	/jointset/hip_l/hip_adduction_l/accel	/jointset/hip_l/hip_rotation_l/accel	/jointset/back/lumbar_extension/accel	/jointset/patellofemoral_l/patellar_flexion_l/accel	/jointset/knee_l/knee_flexion_l/accel	/jointset/knee_l/knee_adduction_l/accel	/jointset/knee_l/knee_rotation_l/accel	/jointset/ankle_l/ankle_angle_l/accel	/jointset/subtalar_l/subtalar_angle_l/accel	gamma_cid13_p0	gamma_cid13_p1	gamma_cid13_p2	gamma_cid13_p3	gamma_cid13_p4	gamma_cid13_p5	gamma_cid14_p0
1	-0.1400655885523631	-0.07457424104762722	0.7074181736682095	1.290428337870499	-0.3326175561961269	0.04966989391995696	-0.9599310014312916	1.271649486999257	1.271649487000284	-0.09634157026141658	-0.1745323566375523	0.2073315715153052	0.02972728846107004	0.10585525429392	0.0258869472460711	0.06777968837704777	-0.2940581977563796	-0.004758657907187337	-0.06363189869294437	-0.0005493334791735081	-0.1605184489469312	-0.1605184489469309	-0.002048542842476907	-1.101591052551185e-05	0.0187251726382151	0.002464226674800658	-0.3886371159353742	0.01207934444859192	-0.001367598717610166	-0.3261180929708777	0.06542520211518797	0.03819210345041554	0.4308075720780996	-29.30653737867878	-11.73531359588199	1.736273355649578	9.900908873097613	-790.7776108355465	-72.73647930723084	-0.2324272990987185	0.9806411850252783	0.08251474982780074	1.368825849505442	-4.794049825943613	-0.1106901302246725	-1.576647329566263	0.09105496852147726	-4.508937491358167	-4.50893749135816	-0.2542884873755025	-0.01510432967634208	-1.015463378501644	-0.5045345927349714	-9.436982469214276e-09	-1.722741192017007e-09	4.827251395785013e-08	4.182839301013801e-09	-2.380736528708648e-08	7.690190382833581e-08	-1.347509411820269e-08
1.01	-0.1389584508796438	-0.07431118048563883	0.7081642000722891	1.287248961968169	-0.3326699566936264	0.04895433351811336	-0.9599310870500064	1.269819250762698	1.269819250763108	-0.096373263100501	-0.1745324011444004	0.20746821290098	0.02972765711109213	0.1155710719026743	0.02673341586842496	0.08141538711405245	-0.3418029452475804	-0.005713556433571135	-0.07947450175643028	0.0005646576862991595	-0.2055218840107342	-0.2055218840107306	-0.004288990149106252	1.159227981593261e-06	0.008597977956855175	-0.002382835557469874	-0.3879687347003995	0.01224563615027025	-0.001415038494833336	-0.3258656617309174	0.06530600222637779	0.03833015779188479	0.4305986741444568	-29.31521948842492	-11.80619919856768	1.7617939863473	9.739563454052512	-790.5122308038415	-72.83151885587569	-0.2460657934314566	0.9668691385587578	0.08695293375691115	1.359404908469322	-4.762584051863808	-0.08671057038241163	-1.587230050182648	0.1264383827355927	-4.495005729907355	-4.495005729906854	-0.2087770005824742	0.009251030035810898	-1.012117546390941	-0.4736489828616486	-1.649475753589348e-08	-1.024378570935111e-08	6.70969548882633e-08	1.196040596972013e-08	-3.082216901201551e-08	8.71264840389981e-08	-1.810747291734523e-08
1.02	-0.1377541916128852	-0.07403940723436335	0.7090462760682731	1.283592559222693	-0.3327316703476974	0.04808051443454604	-0.9599190593186138	1.267539188332297	1.267539188332092	-0.09642733124230642	-0.1745323493809706	0.2075034283331537	0.02967978374991379	0.1252795731017582	0.02762948510348839	0.09498960675791081	-0.3894635663850015	-0.006621289221441765	-0.09528363503763199	0.001873336538789241	-0.2504836877151768	-0.2504836877151698	-0.006523603386768703	8.238143351746682e-06	-0.001560018062015628	-0.00718417556528248	-0.3873003534654311	0.01241192785194734	-0.0014624782720506	-0.3256132304909574	0.06518680233756836	0.03846821213335271	0.4303897762108085	-29.33516611670907	-11.8737153090229	1.785181479613482	9.626421425053989	-790.3924128020244	-72.90818027028448	-0.2637127234873375	0.9791779030911877	0.09243487236971384	1.356530030876175	-4.777224555187678	-0.1012569825220413	-1.569953373109424	0.1299925059249348	-4.500611219486104	-4.500611219486077	-0.2531216735821243	-0.01612357430373692	-1.021623646003819	-0.4953901478433886	-2.272544043335846e-08	-2.097320823078934e-08	8.483729945710941e-08	1.72275671821819e-08	-3.719067650728905e-08	9.555334606147087e-08	-2.274671525291371e-08
1.03	-0.1364533989651822	-0.07375818441144358	0.7100637544665257	1.279460276798687	-0.3328022030016385	0.04704887717782425	-0.9598909266773437	1.264809793661958	1.264809793662074	-0.09650377414379034	-0.1745322111511938	0.207437215788482	0.0295842781154483	0.134827068601527	0.02864776972532612	0.1084928780508148	-0.4369503091606765	-0.007476914435188812	-0.1110332564610778	0.003989704036151405	-0.2953812578413082	-0.2953812578413118	-0.008767509912334413	1.773788833586976e-05	-0.01165708378898187	-0.0118962655493151	-0.3881501763264389	0.01273771629619823	-0.001526912570528998	-0.3248593909944621	0.06497997507469515	0.03875256489291416	0.4319955132470887	-29.41595012591415	-12.00695257180107	1.833708499366903	9.0734480335925	-791.2079448764317	-73.0140185942267	-0.285798396464603	0.9347501403619304	0.1114333194080248	1.345237703148532	-4.728011045752111	-0.0764726269632532	-1.575906155233423	0.2879357197771438	-4.482226127175577	-4.482226127177141	-0.2104200608938175	0.009259768129977839	-0.9999397013087928	-0.4560222764705432	-2.894768361481104e-08	-3.172516522165721e-08	1.025665818181844e-07	2.246911201243707e-08	-4.355258914307631e-08	1.039618640207988e-07	-2.738602762456815e-08
1.04	-0.1350586884090931	-0.073465797129842	0.7112158679826379	1.274854404565525	-0.3328810433749496	0.045860055781214	-0.9598345349914728	1.261631844046759	1.261631844047194	-0.09660273509429997	-0.1745320233201229	0.2072707942534874	0.029442270810585	0.1440631547789843	0.02986237683985286	0.1219166303297648	-0.4841815282161392	-0.008282833095424637	-0.126720463015374	0.007525145458925542	-0.3401946766873963	-0.3401946766874092	-0.01102721319190094	1.815840253973936e-05	-0.02160181612657876	-0.01648450964484134	-0.3889999991874446	0.01306350474044985	-0.001591346869009351	-0.3241055514979663	0.0647731478118219	0.03903691765247654	0.4336012502833706	-29.50815488400527	-12.1368820963991	1.880214022416493	8.566687482281726	-792.1724992563896	-73.1021901996199	-0.3128087671916742	0.9168960386288918	0.1316993709075156	1.340626228085371	-4.726119811145235	-0.09131567181979254	-1.557470399279517	0.4138072910073295	-4.483780963477439	-4.483780963477184	-0.2562810243822868	-0.01793942045977848	-0.9911569681299495	-0.4706209701421085	-3.206624723998028e-08	-4.283397005904215e-08	1.167368911089964e-07	2.21786269969447e-08	-4.77014996949829e-08	1.055523816665411e-07	-3.101319281718467e-08
1.05	-0.1335730016858369	-0.07316033796565244	0.7125017435780648	1.269777568717928	-0.3329676732951208	0.04451477942993015	-0.9597363722450677	1.258006310578582	1.258006310578739	-0.09672442145631652	-0.1745318820029781	0.2070055762603444	0.02925498793062967	0.1530372484123198	0.03125654063697066	0.1352371692255758	-0.5311330842768783	-0.009029959886616559	-0.1423192723219633	0.01227907320226435	-0.3848846886889727	-0.3848846886889605	-0.01330847316811743	1.054807252173469e-05	-0.03142680377845167	-0.02094892907301952	-0.3889333420324565	0.01335219982697503	-0.00167057754490161	-0.3232450712040121	0.0647459345887198	0.03935028089367735	0.4342888034235542	-29.49267626739345	-12.30167448034335	1.936171618406421	8.082920911914091	-792.2950977374821	-73.24179586026487	-0.3453347397864555	0.882122089415703	0.1473419183244938	1.324559393363828	-4.671794040456057	-0.0644416671312915	-1.558786035159062	0.5319359230247978	-4.457505121584216	-4.457505121580651	-0.2138298960241289	0.007923825002473487	-0.9759263692659095	-0.4308883085904469	-3.508782087901569e-08	-5.395392639163074e-08	1.307959824913626e-07	2.171526604877274e-08	-5.178125393176823e-08	1.069298368024839e-07	-3.460872841045625e-08
1.06	-0.1319986828135017	-0.07284012375664961	0.7139201828970567	1.264232793202339	-0.3330613805800766	0.04301397501781812	-0.9595855201398237	1.253934698229772	1.253934698229652	-0.09686887670045169	-0.1745317976562802	0.2066425570495726	0.02902375368050561	0.161789584594849	0.03281338580251236	0.1484293750427854	-0.5777694618143291	-0.009698306052304302	-0.15782607518097	0.01806301722670935	-0.4294104528140077	-0.4294104528139732	-0.01558098961564594	6.76431351511867e-06	-0.04116205965232252	-0.02527478367858865	-0.388866684877471	0.01364089491349954	-0.001749808220791988	-0.322384590910058	0.06471872136561806	0.03966364413487746	0.4349763565637354	-29.48858375855033	-12.46333000137294	1.990323209764329	7.64257895313616	-792.5674670046857	-73.36573133973482	-0.3839944358136123	0.8725445484676393	0.164235644592294	1.314959612365092	-4.663084106487555	-0.07555954671895583	-1.539069109763022	0.61981054722857	-4.450931388169165	-4.450931388169442	-0.2545323186446917	-0.01717410625749862	-0.9732106125295359	-0.4429080056202959	-3.858882598684087e-08	-6.569556290885012e-08	1.411228827830196e-07	2.231731061874508e-08	-5.60394225244455e-08	1.069698967518078e-07	-3.776950164080962e-08
1.07	-0.1303379542448766	-0.07250350968860035	0.7154698452103061	1.258223334450227	-0.333161375618544	0.04135867570624753	-0.9593716525649693	1.249418730645378	1.249418730644444	-0.09703611190841019	-0.1745317456942609	0.2061826151310416	0.02874995171913909	0.170317061785624	0.034538376652681	0.1614758414975049	-0.6240575570508686	-0.01028508394738755	-0.1732145460473807	0.0248870367427469	-0.47374753069616	-0.4737475306961781	-0.01786428300869036	3.85055699156929e-06	-0.05081255491127089	-0.02945953510764845	-0.388538940795687	0.01395847207679786	-0.001841986819551037	-0.321305458473669	0.06475298236271682	0.04003059801344612	0.4354643529338724	-29.43860937714808	-12.66179659940965	2.056629383039012	7.12903541699419	-792.4844232534093	-73.52767733231438	-0.42950524031608	0.8369859934437396	0.1809777365528493	1.295391123821383	-4.601967265109693	-0.04790460407201448	-1.53588589653785	0.7401785035870928	-4.419757757150041	-4.419757757157763	-0.2149862545527666	0.008216627493344253	-0.9589083488587338	-0.402352716389674	-4.211533276853786e-08	-7.747026752099667e-08	1.512512622719792e-07	2.29760256950017e-08	-6.030708124243617e-08	1.069388186592901e-07	-4.090714921356096e-08
1.08	-0.128593123566532	-0.07214877632578465	0.717149152380462	1.251752935739172	-0.3332667719745963	0.03955006172172102	-0.9590842486249959	1.24446045992838	1.244460459926633	-0.0972261317312825	-0.1745317095422374	0.2056265803866649	0.02843508344251381	0.178610006538852	0.03643724475579911	0.1743583464240661	-0.6699574536023092	-0.0107785695692307	-0.188489009772102	0.03277029025061479	-0.5178710793347838	-0.5178710793348532	-0.02013791259847295	3.602314193160256e-06	-0.06038062482146923	-0.03348804673034229	-0.388211196713911	0.01427604924009486	-0.001934165418306261	-0.3202263260372805	0.0647872433598165	0.04039755189201347	0.4359523493040022	-29.40004922001161	-12.85728168805965	2.121337396328377	6.656237396108082	-792.5527179305311	-73.67616794348885	-0.4826074056735507	0.8256380609582623	0.1990110951821848	1.282167306733446	-4.585444369467737	-0.056901092070934	-1.51626768142515	0.8316573455946417	-4.40822553946348	-4.408225539463504	-0.2525995579923285	-0.01664100351246989	-0.9567255427795289	-0.4116600443471009	-4.476449992076231e-08	-8.867226629587926e-08	1.564388444675027e-07	2.290606331237076e-08	-6.367633253768791e-08	1.037765296618124e-07	-4.297503559355699e-08
